<?xml version="1.0" encoding="UTF-8"?>
<svg width="327px" height="327px" viewBox="0 0 327 327" version="1.1" xmlns="http://www.w3.org/2000/svg" xmlns:xlink="http://www.w3.org/1999/xlink">
    <defs>
        <linearGradient x1="22.0401554%" y1="-4.11582661%" x2="16.5652927%" y2="104.247516%" id="linearGradient-1">
            <stop stop-color="#1E3BBE" offset="0%"></stop>
            <stop stop-color="#253491" offset="100%"></stop>
        </linearGradient>
        <linearGradient x1="42.8087192%" y1="-56.9428451%" x2="25.8873457%" y2="160.83892%" id="linearGradient-2">
            <stop stop-color="#1E3BBE" offset="0%"></stop>
            <stop stop-color="#253491" offset="100%"></stop>
        </linearGradient>
        <linearGradient x1="44.1505107%" y1="-56.9428451%" x2="30.3864266%" y2="160.83892%" id="linearGradient-3">
            <stop stop-color="#1E3BBE" offset="0%"></stop>
            <stop stop-color="#253491" offset="100%"></stop>
        </linearGradient>
        <linearGradient x1="40.9792573%" y1="-56.9428451%" x2="19.7530864%" y2="160.83892%" id="linearGradient-4">
            <stop stop-color="#1E3BBE" offset="0%"></stop>
            <stop stop-color="#253491" offset="100%"></stop>
        </linearGradient>
        <linearGradient x1="44.1750625%" y1="-56.9428451%" x2="30.46875%" y2="160.83892%" id="linearGradient-5">
            <stop stop-color="#1E3BBE" offset="0%"></stop>
            <stop stop-color="#253491" offset="100%"></stop>
        </linearGradient>
    </defs>
    <g id="Logo-Blue" stroke="none" stroke-width="1" fill="none" fill-rule="evenodd">
        <g id="Lowercase-with-different-icons" transform="translate(-140.000000, -273.000000)">
            <circle id="Oval" fill="url(#linearGradient-1)" fill-rule="nonzero" cx="303.5" cy="436.5" r="163.5"></circle>
            <path d="M377,385.335616 L377,346.131824 C377,342.816064 378.641728,341.158209 381.925234,341.158209 L403.074766,341.158209 C406.358272,341.158209 408,342.816064 408,346.131824 L408,385.335616 C408,408.350892 406.551416,433.023678 403.654206,459.354715 C403.074763,462.865519 401.336463,464.620896 398.439252,464.620896 L386.560748,464.620896 C383.663537,464.620896 381.925237,462.865519 381.345794,459.354715 C378.448584,433.023678 377,408.350892 377,385.335616 Z M408,488.897063 L408,524.234184 C408,527.516884 406.481803,529.158209 403.445363,529.158209 L384.372819,529.158209 C381.336379,529.158209 379.818182,527.420335 379.818182,523.944535 L379.818182,488.897063 C379.818182,485.807463 381.336379,484.262687 384.372819,484.262687 L403.445363,484.262687 C406.481803,484.262687 408,485.807463 408,488.897063 Z M350.237391,386.090202 C353.552459,386.090202 355.905101,387.012046 355.905101,391.087092 L355.905101,404.314152 C356.395786,407.841386 354.983616,409.604977 351.668549,409.604977 L322.710607,409.604977 L316.445809,463.395023 L341.629395,463.395023 C344.944462,463.395023 347.394826,464.52632 347.337995,468.685848 L347.394826,481.912908 C347.312347,485.191196 346.432451,486.909798 343.117384,486.909798 L313.574433,486.909798 L309.026791,525.709176 C308.737461,529.23641 307.13029,531 304.20523,531 L290.457521,531 C286.947449,531 285.309844,529.040455 285.544654,525.121306 L290.174076,486.909798 L248.638442,486.909798 L244.0908,525.709176 C243.411461,529.23641 241.511789,531 238.391726,531 L225.229025,531 C221.52395,531 219.983844,529.040455 220.608662,525.121306 L225.238085,486.909798 L199.341005,486.909798 C196.025937,486.909798 195,486.105622 195,482.722426 L195,468.685848 C195,464.611764 196.025937,463.395023 199.341005,463.395023 L227.816956,463.395023 L234.081754,409.604977 L203.022612,409.604977 C199.341005,409.604977 198.452666,407.727358 198.452666,404.314152 L198.452666,391.087092 C198.452666,387.877076 199.341005,386.090202 203.022612,386.090202 L236.95313,386.090202 L241.500772,347.290824 C241.595099,343.76359 243.20227,342 246.322333,342 L259.777538,342 C263.677617,342 265.315223,343.959545 264.690405,347.878694 L260.353487,386.090202 L301.889121,386.090202 L306.436763,347.290824 C306.726094,343.76359 308.625766,342 312.135837,342 L324.713529,342 C328.418604,342 330.153711,343.959545 329.918901,347.878694 L325.289478,386.090202 L350.237391,386.090202 Z M291.709046,463 L298,409 L256.290954,409 L250,463 L291.709046,463 Z" id="Combined-Shape" fill="#FFFFFF"></path>
        </g>
    </g>
</svg>